<svg width="16" height="16" viewBox="0 0 16 16" fill="none" xmlns="http://www.w3.org/2000/svg">
<g clip-path="url(#clip0_2248_24594)">
<rect x="0.5" y="0.5" width="15" height="15" rx="1.5" stroke="#1C1E23"/>
<path d="M5.93281 7.98105V8.19668C5.93281 8.54251 5.88594 8.85293 5.79219 9.12793C5.69844 9.40293 5.56615 9.6373 5.39531 9.83105C5.22448 10.0227 5.02031 10.1696 4.78281 10.2717C4.5474 10.3738 4.28594 10.4248 3.99844 10.4248C3.71302 10.4248 3.45156 10.3738 3.21406 10.2717C2.97865 10.1696 2.77448 10.0227 2.60156 9.83105C2.42865 9.6373 2.29427 9.40293 2.19844 9.12793C2.10469 8.85293 2.05781 8.54251 2.05781 8.19668V7.98105C2.05781 7.63314 2.10469 7.32272 2.19844 7.0498C2.29219 6.7748 2.42448 6.54043 2.59531 6.34668C2.76823 6.15293 2.9724 6.00501 3.20781 5.90293C3.44531 5.80085 3.70677 5.7498 3.99219 5.7498C4.27969 5.7498 4.54115 5.80085 4.77656 5.90293C5.01406 6.00501 5.21823 6.15293 5.38906 6.34668C5.56198 6.54043 5.69531 6.7748 5.78906 7.0498C5.8849 7.32272 5.93281 7.63314 5.93281 7.98105ZM4.98594 8.19668V7.9748C4.98594 7.73314 4.96406 7.52064 4.92031 7.3373C4.87656 7.15397 4.81198 6.9998 4.72656 6.8748C4.64115 6.7498 4.53698 6.65605 4.41406 6.59355C4.29115 6.52897 4.15052 6.49668 3.99219 6.49668C3.83385 6.49668 3.69323 6.52897 3.57031 6.59355C3.44948 6.65605 3.34635 6.7498 3.26094 6.8748C3.1776 6.9998 3.11406 7.15397 3.07031 7.3373C3.02656 7.52064 3.00469 7.73314 3.00469 7.9748V8.19668C3.00469 8.43626 3.02656 8.64876 3.07031 8.83418C3.11406 9.01751 3.17865 9.17272 3.26406 9.2998C3.34948 9.4248 3.45365 9.5196 3.57656 9.58418C3.69948 9.64876 3.8401 9.68105 3.99844 9.68105C4.15677 9.68105 4.2974 9.64876 4.42031 9.58418C4.54323 9.5196 4.64635 9.4248 4.72969 9.2998C4.81302 9.17272 4.87656 9.01751 4.92031 8.83418C4.96406 8.64876 4.98594 8.43626 4.98594 8.19668ZM8.97656 9.17168C8.97656 9.09043 8.96406 9.01751 8.93906 8.95293C8.91615 8.88626 8.8724 8.82585 8.80781 8.77168C8.74323 8.71543 8.6526 8.66022 8.53594 8.60605C8.41927 8.55189 8.26823 8.49564 8.08281 8.4373C7.87656 8.37064 7.68073 8.29564 7.49531 8.2123C7.31198 8.12897 7.14948 8.0321 7.00781 7.92168C6.86823 7.80918 6.75781 7.67897 6.67656 7.53105C6.5974 7.38314 6.55781 7.21126 6.55781 7.01543C6.55781 6.82585 6.59948 6.65397 6.68281 6.4998C6.76615 6.34355 6.88281 6.21022 7.03281 6.0998C7.18281 5.9873 7.3599 5.90085 7.56406 5.84043C7.77031 5.78001 7.99635 5.7498 8.24219 5.7498C8.5776 5.7498 8.87031 5.81022 9.12031 5.93105C9.37031 6.05189 9.56406 6.21751 9.70156 6.42793C9.84115 6.63835 9.91094 6.87897 9.91094 7.1498H8.97969C8.97969 7.01647 8.95156 6.8998 8.89531 6.7998C8.84115 6.69772 8.75781 6.61751 8.64531 6.55918C8.5349 6.50085 8.39531 6.47168 8.22656 6.47168C8.06406 6.47168 7.92865 6.49668 7.82031 6.54668C7.71198 6.5946 7.63073 6.66022 7.57656 6.74355C7.5224 6.8248 7.49531 6.91647 7.49531 7.01855C7.49531 7.09564 7.51406 7.16543 7.55156 7.22793C7.59115 7.29043 7.64948 7.34876 7.72656 7.40293C7.80365 7.4571 7.89844 7.50814 8.01094 7.55605C8.12344 7.60397 8.25365 7.65085 8.40156 7.69668C8.64948 7.77168 8.86719 7.85605 9.05469 7.9498C9.24427 8.04355 9.4026 8.14876 9.52969 8.26543C9.65677 8.3821 9.7526 8.51439 9.81719 8.6623C9.88177 8.81022 9.91406 8.97793 9.91406 9.16543C9.91406 9.36335 9.87552 9.54043 9.79844 9.69668C9.72135 9.85293 9.6099 9.98522 9.46406 10.0936C9.31823 10.2019 9.14427 10.2842 8.94219 10.3404C8.7401 10.3967 8.51406 10.4248 8.26406 10.4248C8.03906 10.4248 7.81719 10.3956 7.59844 10.3373C7.37969 10.2769 7.18073 10.1863 7.00156 10.0654C6.82448 9.9446 6.68281 9.79043 6.57656 9.60293C6.47031 9.41543 6.41719 9.19355 6.41719 8.9373H7.35781C7.35781 9.07897 7.37969 9.19876 7.42344 9.29668C7.46719 9.3946 7.52865 9.47376 7.60781 9.53418C7.68906 9.5946 7.7849 9.63835 7.89531 9.66543C8.00781 9.69251 8.13073 9.70605 8.26406 9.70605C8.42656 9.70605 8.5599 9.68314 8.66406 9.6373C8.77031 9.59147 8.84844 9.52793 8.89844 9.44668C8.95052 9.36543 8.97656 9.27376 8.97656 9.17168ZM11.9484 10.3623H10.9578L10.9641 9.63105H11.9484C12.1943 9.63105 12.4016 9.57585 12.5703 9.46543C12.7391 9.35293 12.8661 9.18939 12.9516 8.9748C13.0391 8.76022 13.0828 8.50085 13.0828 8.19668V7.9748C13.0828 7.74147 13.0578 7.53626 13.0078 7.35918C12.9599 7.1821 12.888 7.03314 12.7922 6.9123C12.6964 6.79147 12.5786 6.70085 12.4391 6.64043C12.2995 6.57793 12.1391 6.54668 11.9578 6.54668H10.9391V5.8123H11.9578C12.262 5.8123 12.5401 5.86439 12.7922 5.96855C13.0464 6.07064 13.2661 6.21751 13.4516 6.40918C13.637 6.60085 13.7797 6.83001 13.8797 7.09668C13.9818 7.36126 14.0328 7.65605 14.0328 7.98105V8.19668C14.0328 8.5196 13.9818 8.81439 13.8797 9.08105C13.7797 9.34772 13.637 9.57689 13.4516 9.76855C13.2682 9.95814 13.0484 10.105 12.7922 10.2092C12.538 10.3113 12.2568 10.3623 11.9484 10.3623ZM11.4891 5.8123V10.3623H10.5516V5.8123H11.4891Z" fill="#1C1E23"/>
</g>
<defs>
<clipPath id="clip0_2248_24594">
<rect width="16" height="16" fill="white"/>
</clipPath>
</defs>
</svg>
